<?xml version="1.0" encoding="UTF-8"?> <svg xmlns="http://www.w3.org/2000/svg" width="1000" height="140" viewBox="0 0 1000 140" fill="none"> <path d="M488.693 39.2277C488.684 43.973 487.719 48.6692 485.854 53.0424C483.989 57.4157 481.261 61.3786 477.829 64.7C474.397 68.0215 470.33 70.6351 465.865 72.3884C461.399 74.1418 456.626 75 451.821 74.9128H435.904V107.618H411.932V3.58949H451.821C456.622 3.49917 461.394 4.3536 465.857 6.10294C470.321 7.85228 474.387 10.4616 477.819 13.7787C481.251 17.0957 483.98 21.0543 485.847 25.4236C487.714 29.7928 488.681 34.4854 488.693 39.2277V39.2277ZM464.603 39.2277C464.693 37.5112 464.429 35.7945 463.829 34.1814C463.228 32.5682 462.302 31.0921 461.108 29.8421C459.913 28.5922 458.474 27.5944 456.878 26.909C455.282 26.2237 453.562 25.8649 451.821 25.8546H435.904V52.6008H451.726C453.475 52.6031 455.205 52.2537 456.812 51.574C458.42 50.8943 459.87 49.8984 461.075 48.6471C462.28 47.3958 463.214 45.9154 463.82 44.2959C464.427 42.6765 464.693 40.952 464.603 39.2277V39.2277Z" fill="white"></path> <path d="M571.487 33.3179L545.734 105.415C537.3 129.041 523.9 138.402 502.827 137.37V116.654C513.376 116.654 518.341 113.369 521.643 104.313L491.709 33.4117H516.536L533.166 78.9038L547.42 33.4117L571.487 33.3179Z" fill="white"></path> <path d="M685.88 107.643H661.79V47.1351L634.54 91.2898H631.832L604.582 47.1351V107.643H580.516V3.59033H604.582L633.091 49.8097L661.6 3.59033H685.69L685.88 107.643Z" fill="white"></path> <path d="M780.384 33.3166V107.643H757.814V100.605C752.849 106.259 745.484 109.661 735.387 109.661C715.668 109.661 699.418 92.5806 699.418 70.4329C699.418 48.2851 715.668 31.1816 735.387 31.1816C745.484 31.1816 752.849 34.607 757.814 40.2613V33.2228L780.384 33.3166ZM757.79 70.4798C757.79 59.3356 750.259 52.344 739.877 52.344C729.495 52.344 721.964 59.3825 721.964 70.4798C721.964 81.5772 729.495 88.6156 739.877 88.6156C750.259 88.6156 757.814 81.6241 757.814 70.4798H757.79Z" fill="white"></path> <path d="M874.181 33.315V103.911C874.181 128.898 854.462 139.455 834.434 139.455C818.778 139.455 805.688 133.637 798.798 121.46L818.066 110.457C820.94 115.665 825.312 119.841 835.242 119.841C845.767 119.841 852.253 114.492 852.253 103.934V97.1071C849.608 100.301 846.243 102.839 842.427 104.517C838.611 106.196 834.45 106.969 830.277 106.773C808.895 106.773 793.239 89.529 793.239 69.0001C793.239 48.4712 808.895 31.2269 830.277 31.2269C834.45 31.0316 838.611 31.8043 842.427 33.4828C846.243 35.1614 849.608 37.6992 852.253 40.8931V33.315H874.181ZM852.205 68.9766C852.205 58.7239 844.674 51.7323 833.983 51.7323C823.292 51.7323 815.761 58.7708 815.761 68.9766C815.761 79.1824 823.292 86.2209 833.983 86.2209C844.674 86.2209 852.205 79.2528 852.205 68.9766V68.9766Z" fill="white"></path> <path d="M888.461 13.42C888.456 10.7694 889.248 8.17703 890.735 5.97089C892.223 3.76475 894.34 2.04406 896.818 1.02651C899.297 0.00895486 902.025 -0.259695 904.658 0.254562C907.291 0.76882 909.711 2.04285 911.61 3.91546C913.51 5.78807 914.804 8.17505 915.329 10.7744C915.855 13.3737 915.587 16.0685 914.561 18.5178C913.535 20.9671 911.797 23.0607 909.565 24.5338C907.334 26.0069 904.71 26.7931 902.026 26.7931C898.444 26.7566 895.019 25.3367 892.483 22.8373C889.948 20.3378 888.504 16.9576 888.461 13.42V13.42ZM890.718 33.3389H913.43V107.665H890.836L890.718 33.3389Z" fill="white"></path> <path d="M926.09 70.4783C926.11 61.8951 928.974 53.5541 934.243 46.7284C939.513 39.9027 946.9 34.9672 955.276 32.6753C963.651 30.3834 972.557 30.8609 980.632 34.035C988.707 37.2091 995.509 42.9053 1000 50.2544L980.281 61.5629C978.906 58.9513 976.8 56.7845 974.214 55.3205C971.628 53.8565 968.671 53.1567 965.694 53.3044C961.063 53.3044 956.621 55.1212 953.347 58.3552C950.072 61.5891 948.232 65.9752 948.232 70.5487C948.232 75.1222 950.072 79.5083 953.347 82.7423C956.621 85.9762 961.063 87.793 965.694 87.793C968.681 87.952 971.651 87.2492 974.241 85.7703C976.832 84.2914 978.93 82.1003 980.281 79.4641L1000 90.6084C996.57 96.4925 991.604 101.36 985.62 104.703C979.636 108.045 972.853 109.741 965.979 109.612C960.729 109.733 955.509 108.805 950.632 106.885C945.754 104.964 941.319 102.09 937.594 98.4355C933.869 94.7808 930.93 90.4205 928.953 85.6164C926.976 80.8123 926.002 75.6633 926.09 70.4783V70.4783Z" fill="white"></path> <path d="M165.59 90.2574C163.428 92.4393 161.1 94.457 158.819 96.5686C147.951 107.075 136.008 116.44 123.183 124.511C104.984 135.491 85.4082 141.544 63.385 138.776C51.4918 137.501 40.0465 133.578 29.9107 127.303C14.6346 117.52 6.31949 103.56 2.18568 87.2074C1.16411 83.1016 0.712725 78.8551 0 74.6789V65.2942C0.213817 63.7927 0.451389 62.3146 0.665207 60.8366C2.69895 45.2218 10.4787 30.8916 22.5221 20.5764C45.8995 0.23522 73.0543 -4.80903 103.298 4.81023C117.362 9.2914 129.146 17.3622 140.05 26.4418C146.56 31.838 152.832 37.5157 159.056 43.2169L138.601 62.4554C135.655 59.7182 132.598 56.9888 129.431 54.2673C122.639 47.9853 115.248 42.3674 107.36 37.4922C97.4042 31.3237 85.8513 28.1374 74.0996 28.3188C67.2576 28.5359 60.5648 30.3498 54.5691 33.6121C48.5733 36.8744 43.445 41.4923 39.6037 47.0881C35.9133 52.0964 33.4842 57.9008 32.5174 64.0208C31.5507 70.1407 32.0741 76.4001 34.0445 82.2805C35.5076 87.6232 38.1403 92.5838 41.7568 96.812C45.3733 101.04 49.8855 104.433 54.9748 106.751C64.9085 111.201 76.0619 112.249 86.6673 109.73C97.3758 107.27 107.433 102.592 116.174 96.0055C126.439 88.3667 136.141 80.0168 145.206 71.0189L168.369 49.0353C172.994 44.7028 177.674 40.4171 182.41 36.1784C193.31 25.9061 205.579 17.1522 218.878 10.1595C236.14 1.2479 255.863 -1.89677 275.088 1.19712C304.951 6.07714 326.856 26.8407 332.272 55.0181C332.937 58.42 333.27 61.8689 333.745 65.2942V74.022L333.318 77.3066C332.23 86.4711 329.209 95.3088 324.45 103.25C319.691 111.19 313.3 118.058 305.688 123.409C282.286 140.371 256.296 143.609 228.571 133.849C215.863 129.034 204.15 121.974 194.004 113.015C187.447 107.572 181.151 101.847 174.855 96.1228L195.477 76.767C202.034 82.5854 208.567 88.4978 215.338 93.9878C223.404 100.996 232.959 106.127 243.3 109.003C258.149 112.874 272.213 111.349 284.401 102.223C299.701 90.8205 304.737 75.852 300.128 58.2088C295.377 39.9557 279.269 28.3188 259.004 28.3188C248.032 28.4785 237.29 31.4538 227.834 36.9526C218.555 42.2759 209.915 48.6196 202.081 55.8627L187.233 69.1185L165.59 90.2574Z" fill="#80E8EC"></path> </svg> 